<svg width="250" height="250" viewBox="0 0 250 250" fill="none" xmlns="http://www.w3.org/2000/svg">
<rect width="250" height="250" fill="#F5F5F5"/>
<path d="M250 250H0V0H250V250Z" fill="#2E5676"/>
<path d="M50.6951 125V122.888L55.5911 121.832C57.8311 121.32 59.2391 120.744 59.8151 120.104C60.4551 119.464 60.7751 118.152 60.7751 116.168V63.56H53.7671C51.0151 63.56 48.5191 64.296 46.2791 65.768C44.0391 67.176 42.1511 69.096 40.6151 71.528C39.0791 73.896 37.9591 76.488 37.2551 79.304H34.6631C35.0471 77.576 35.3671 75.624 35.6231 73.448C35.9431 71.208 36.1351 68.968 36.1991 66.728C36.2631 64.424 36.1351 62.312 35.8151 60.392H99.1751C98.8551 62.312 98.7271 64.424 98.7911 66.728C98.8551 68.968 99.0471 71.208 99.3671 73.448C99.6871 75.624 100.007 77.576 100.327 79.304H97.7351C97.0311 76.488 95.9111 73.896 94.3751 71.528C92.8391 69.096 90.9511 67.176 88.7111 65.768C86.5351 64.296 84.0391 63.56 81.2231 63.56H74.2151V116.168C74.2151 118.152 74.5351 119.464 75.1751 120.104C75.8151 120.744 77.2231 121.32 79.3991 121.832L84.2951 122.888V125H50.6951Z" fill="white"/>
<path d="M108.969 200.219C108.969 197.969 108.812 187.672 108.5 169.328C108.406 168.609 108.031 168 107.375 167.5C106.75 166.969 105.828 166.562 104.609 166.281C103.391 166 102.391 165.797 101.609 165.672C100.859 165.547 99.7969 165.422 98.4219 165.297C98.2969 164.734 98.2344 164.344 98.2344 164.125C98.2344 163.938 98.2969 163.594 98.4219 163.094C99.2344 163.125 101.172 163.203 104.234 163.328C107.297 163.422 109.656 163.469 111.312 163.469C112.719 163.469 115.375 163.406 119.281 163.281C123.188 163.156 126 163.094 127.719 163.094C135.719 163.094 141.828 164.953 146.047 168.672C150.266 172.391 152.375 177.344 152.375 183.531C152.375 189.406 150.484 194.203 146.703 197.922C142.922 201.641 137.547 203.5 130.578 203.5C126.391 203.5 122.625 202.625 119.281 200.875C119.281 208.5 119.375 216.734 119.562 225.578C119.594 226.391 119.953 227.094 120.641 227.688C121.328 228.25 122.312 228.688 123.594 229C124.906 229.312 126 229.547 126.875 229.703C127.781 229.828 128.953 229.953 130.391 230.078C130.516 230.703 130.578 231.125 130.578 231.344C130.578 231.594 130.516 231.906 130.391 232.281C125.078 232.094 119.641 232 114.078 232C108.453 232 103.016 232.094 97.7656 232.281C97.6406 231.906 97.5781 231.594 97.5781 231.344C97.5781 230.812 97.6406 230.391 97.7656 230.078C99.2031 229.953 100.359 229.828 101.234 229.703C102.141 229.547 103.234 229.312 104.516 229C105.828 228.688 106.828 228.25 107.516 227.688C108.203 227.094 108.562 226.391 108.594 225.578C108.844 217.547 108.969 209.094 108.969 200.219ZM119.562 166.328C119.375 177.578 119.281 188.047 119.281 197.734C121.844 198.891 124.391 199.469 126.922 199.469C131.328 199.469 134.641 198.047 136.859 195.203C139.078 192.359 140.188 188.438 140.188 183.438C140.188 171.906 134.484 166.141 123.078 166.141C122.359 166.141 121.188 166.203 119.562 166.328Z" fill="white"/>
<path d="M188.069 125V122.888L192.965 121.832C195.205 121.32 196.613 120.744 197.189 120.104C197.829 119.464 198.149 118.152 198.149 116.168V69.224C198.149 67.176 197.829 65.832 197.189 65.192C196.613 64.552 195.205 64.008 192.965 63.56L188.069 62.504V60.392H221.669V62.504L216.773 63.56C214.597 64.008 213.189 64.552 212.549 65.192C211.909 65.832 211.589 67.176 211.589 69.224V116.168C211.589 118.152 211.909 119.464 212.549 120.104C213.189 120.744 214.597 121.32 216.773 121.832L221.669 122.888V125H188.069ZM143.333 125V122.888L148.229 121.832C150.469 121.32 151.877 120.744 152.453 120.104C153.093 119.464 153.413 118.152 153.413 116.168V69.224C153.413 67.176 153.093 65.832 152.453 65.192C151.877 64.552 150.469 64.008 148.229 63.56L143.333 62.504V60.392H176.933V62.504L172.037 63.56C169.861 64.008 168.453 64.552 167.813 65.192C167.173 65.832 166.853 67.176 166.853 69.224V116.168C166.853 118.152 167.173 119.464 167.813 120.104C168.453 120.744 169.861 121.32 172.037 121.832L176.933 122.888V125H143.333ZM165.125 92.264V89.096H201.989V92.264H165.125Z" fill="white"/>
<path d="M138.744 10.8182L129.591 37H121.409L112.256 10.8182H119.926L125.364 29.5511H125.636L131.057 10.8182H138.744Z" fill="white"/>
</svg>
